<?xml version="1.0" standalone="no"?>
<!DOCTYPE svg PUBLIC "-//W3C//DTD SVG 20010904//EN"
 "http://www.w3.org/TR/2001/REC-SVG-20010904/DTD/svg10.dtd">
<svg version="1.0" xmlns="http://www.w3.org/2000/svg"
 width="300.000000pt" height="229.000000pt" viewBox="0 0 300.000000 229.000000"
 preserveAspectRatio="xMidYMid meet">
<metadata>
Created by potrace 1.10, written by Peter Selinger 2001-2011
</metadata>
<g transform="translate(0.000000,229.000000) scale(0.100000,-0.100000)"
fill="#000000" stroke="none">
<path d="M5 1145 c0 -632 1 -883 2 -557 l3 592 60 0 60 0 0 -120 0 -119 -58
-4 -57 -3 58 -2 57 -2 0 -59 0 -60 -52 -4 -53 -3 53 -2 52 -2 0 -55 0 -54 -58
-4 -57 -3 58 -2 57 -2 0 -60 0 -59 -58 -4 -57 -3 58 -2 57 -2 0 -54 0 -55 -53
-4 -52 -3 53 -2 52 -2 0 -60 0 -59 -58 -4 -57 -3 58 -2 57 -2 0 -120 0 -119
-57 -4 -58 -3 57 -2 c54 -2 57 -3 61 -29 l4 -28 2 28 1 27 119 0 120 0 4 -27
4 -28 2 28 1 27 119 0 120 0 4 -27 4 -28 2 28 c1 26 3 27 60 27 57 0 60 -1 64
-28 l4 -27 2 28 c1 26 3 27 55 27 52 0 55 -1 59 -28 l4 -27 2 28 c1 26 3 27
60 27 57 0 60 -1 64 -27 l4 -28 2 28 1 27 119 0 120 0 4 -28 4 -27 2 28 1 27
119 0 120 0 4 -28 4 -27 2 28 c1 26 3 27 60 27 57 0 60 -1 64 -27 l4 -28 2 28
c1 26 3 27 55 27 52 0 55 -1 59 -27 l4 -28 2 28 c1 26 3 27 60 27 57 0 60 -1
64 -27 l4 -28 2 28 1 27 119 0 120 0 4 -28 4 -27 2 28 1 27 119 0 120 0 4 -27
4 -28 2 28 c1 26 3 27 60 27 57 0 60 -1 64 -28 l4 -27 2 28 1 27 119 0 120 0
4 -28 4 -27 2 27 1 27 113 4 112 3 -112 2 -113 2 0 120 0 119 113 4 112 3
-112 2 -113 2 0 120 0 120 113 2 c61 1 91 3 65 5 -39 3 -47 8 -51 26 l-4 22
-2 -22 c-1 -21 -6 -23 -61 -23 l-60 0 0 60 0 60 106 -1 c58 0 109 2 112 5 3 3
-45 6 -106 6 l-112 0 0 120 0 119 113 4 112 3 -112 2 -113 2 0 120 0 119 113
4 112 3 -112 2 -113 2 0 60 0 60 106 -1 c58 0 109 2 112 5 3 3 -45 6 -106 6
l-112 0 0 55 0 55 112 0 c61 0 109 3 106 6 -3 3 -54 5 -112 5 l-106 -1 0 60 0
59 113 4 112 3 -112 2 -113 2 0 120 0 119 113 4 112 3 -112 2 -113 2 0 185 0
185 59 0 60 0 4 -32 4 -33 1 32 c2 31 4 32 50 36 26 2 -3 4 -65 5 l-112 2 -4
48 -3 47 -2 -47 -2 -48 -117 -2 c-65 -1 -94 -3 -65 -5 l52 -4 0 -60 0 -59 -55
0 -55 0 -2 113 c-1 61 -3 91 -5 65 l-4 -48 -59 0 -59 0 -4 48 c-2 26 -4 -4 -5
-65 l-2 -113 -55 0 -55 0 0 59 0 60 53 4 52 3 -52 2 -52 2 -4 48 -3 47 -2 -47
-2 -48 -184 0 -185 0 -4 48 -3 47 -2 -47 -2 -48 -65 0 -65 0 2 -57 2 -58 3 53
4 52 60 0 59 0 0 -59 0 -60 -42 -4 -43 -4 42 -1 c37 -2 42 -5 46 -29 l4 -28 2
27 1 27 118 4 117 3 -117 2 -118 2 0 60 0 60 120 0 120 0 0 -184 0 -185 -32
-4 -33 -4 32 -1 32 -2 4 -82 3 -83 2 83 2 82 120 0 120 0 0 -59 0 -60 -52 -4
-53 -3 53 -2 52 -2 0 -55 0 -55 -117 -2 c-65 -1 -92 -3 -60 -5 l57 -4 0 -59 0
-59 -52 -4 c-29 -2 -3 -3 57 -3 61 0 86 1 58 3 l-53 4 0 60 0 59 55 0 55 0 0
-120 0 -120 -125 0 -125 0 0 -64 c0 -63 -1 -65 -27 -69 l-28 -4 28 -2 27 -1 0
-120 0 -120 -119 0 c-105 0 -120 2 -124 18 -4 15 -5 15 -6 0 -1 -10 -12 -18
-28 -21 l-28 -4 27 -2 c27 -1 27 -1 31 -88 l3 -88 2 88 2 87 120 0 120 0 2
-97 c0 -54 3 -84 5 -66 4 31 6 32 56 36 l52 3 -52 2 -53 2 0 60 0 60 120 0
120 0 0 -119 0 -120 -47 -4 -48 -3 48 -2 47 -2 0 -185 0 -185 -121 0 -120 0 2
65 c1 36 -1 68 -4 72 -4 3 -7 -26 -7 -65 l0 -72 -120 0 -119 0 -4 68 -3 67 -2
-67 -2 -68 -120 0 -119 0 -4 78 -3 77 -2 -77 -2 -78 -60 0 -60 0 0 59 0 60 38
4 37 4 -37 1 -38 2 0 54 c0 44 4 55 18 59 15 4 15 5 0 6 -14 1 -18 13 -21 63
l-3 63 -2 -62 c-2 -55 -4 -62 -24 -66 l-23 -4 23 -2 22 -1 0 -245 0 -245 -120
0 -120 0 0 120 0 119 118 4 117 3 -117 2 -117 2 -4 83 -3 82 -2 -82 -2 -83
-120 0 -119 0 -4 68 -3 67 -2 -67 -2 -68 -61 0 -61 0 4 65 c1 36 0 65 -4 65
-5 0 -8 -29 -8 -65 l0 -65 -55 0 -55 0 -1 88 c-1 48 -4 77 -6 65 -4 -21 -10
-23 -64 -23 l-59 0 0 55 0 54 58 4 57 3 -57 2 -58 2 0 60 0 59 58 4 57 3 -57
2 -58 2 0 55 0 55 65 0 65 0 0 65 0 65 120 0 120 0 0 -60 0 -60 -60 0 -59 0
-4 58 -3 57 -2 -62 -2 -63 64 0 c63 0 65 -1 69 -27 2 -16 5 13 6 64 l1 92 103
4 102 3 -102 2 -102 2 -4 92 -3 93 -2 -92 -2 -93 -60 0 -59 0 0 119 0 120 47
4 47 3 -47 2 -48 2 0 59 c0 38 4 61 13 64 7 3 5 6 -5 6 -15 1 -18 -8 -18 -64
l0 -65 -55 0 -55 0 0 59 0 60 53 4 52 3 -52 2 -53 2 0 55 0 55 54 0 55 0 3
-52 c2 -29 6 2 8 70 l5 122 -127 0 -128 0 0 120 0 120 120 0 120 0 2 -117 c1
-65 3 -95 5 -66 3 38 8 53 21 56 16 4 16 5 0 6 -15 1 -18 11 -18 60 l0 60 53
4 52 3 -52 2 -53 2 0 59 0 60 53 4 52 3 -52 2 -53 2 0 55 0 55 60 0 59 0 4
-102 3 -103 2 102 2 102 118 4 117 3 -117 2 -118 2 -2 113 c-1 61 -3 91 -5 65
l-4 -48 -119 0 -119 0 -4 48 -3 47 -2 -47 -2 -48 -59 0 -60 0 -4 48 c-2 26 -4
-4 -5 -65 l-2 -113 -120 0 -120 0 0 60 0 59 118 4 117 3 -117 2 -117 2 -4 48
-3 47 -2 -47 -2 -48 -117 -2 c-65 -1 -95 -3 -66 -5 l52 -4 4 -57 3 -57 2 58 2
57 60 0 60 0 0 -60 0 -59 -118 -4 -117 -3 118 -2 117 -2 0 -120 0 -120 -120 0
-120 0 -2 238 c-1 130 -3 216 -5 190 l-4 -47 -57 -4 -57 -3 58 -2 57 -2 0 -60
0 -59 -57 -4 -58 -3 58 -2 57 -2 0 -120 0 -120 -60 0 -60 0 -3 238 c-1 130 -2
-280 -2 -913z m755 985 l0 -60 -60 0 -60 0 0 60 0 60 60 0 60 0 0 -60z m120 0
l0 -60 -55 0 -55 0 0 60 0 60 55 0 55 0 0 -60z m130 0 l0 -60 -60 0 -60 0 0
60 0 60 60 0 60 0 0 -60z m1260 0 l0 -60 -60 0 -60 0 0 60 0 60 60 0 60 0 0
-60z m250 0 l0 -60 -60 0 -60 0 0 60 0 60 60 0 60 0 0 -60z m250 -125 l0 -185
-120 0 -120 0 0 120 0 120 118 2 c64 1 91 3 60 5 l-58 4 0 59 0 60 60 0 60 0
0 -185z m-2140 -65 l0 -120 -120 0 -120 0 0 120 0 120 120 0 120 0 0 -120z
m250 0 l0 -120 -120 0 -120 0 0 120 0 120 120 0 120 0 0 -120z m1510 0 l0
-120 -120 0 -120 0 0 120 0 120 120 0 120 0 0 -120z m130 0 l0 -120 -60 0 -59
0 0 120 0 120 59 0 60 0 0 -120z m-2390 -190 l0 -60 -52 -2 -53 -2 53 -3 52
-4 0 -55 0 -54 -57 -2 -58 -2 58 -3 57 -4 0 -59 0 -60 -57 -2 -58 -2 58 -3 57
-4 0 -54 0 -55 -57 -2 -58 -2 58 -3 57 -4 0 -59 0 -60 -60 0 -60 0 0 310 0
310 60 0 60 0 0 -60z m250 -60 l0 -120 -120 0 -120 0 0 120 0 120 120 0 120 0
0 -120z m250 0 l0 -120 -120 0 -120 0 0 120 0 120 120 0 120 0 0 -120z m1890
0 l0 -120 -60 0 -60 0 0 55 0 55 58 2 57 2 -57 3 -58 4 0 59 0 60 60 0 60 0 0
-120z m250 0 l0 -120 -120 0 -120 0 0 120 0 120 120 0 120 0 0 -120z m-2520
-189 l0 -60 -52 -4 c-29 -2 -1 -3 62 -3 63 0 89 1 58 3 l-58 4 0 59 0 60 60 0
60 0 0 -120 0 -120 -117 0 c-64 0 -114 -2 -111 -6 3 -3 56 -5 117 -5 l111 1 0
-60 0 -60 -120 0 -120 0 0 185 0 185 55 0 55 0 0 -59z m380 -126 l0 -185 -120
0 -120 0 0 60 0 60 118 2 117 2 -117 3 -118 4 0 54 0 55 117 0 c64 0 114 2
111 6 -3 3 -56 5 -117 5 l-111 -1 0 60 0 60 120 0 120 0 0 -185z m130 125 l0
-60 -60 0 -60 0 0 60 0 60 60 0 60 0 0 -60z m120 0 l0 -60 -55 0 -55 0 0 60 0
60 55 0 55 0 0 -60z m1640 0 l0 -60 -60 0 -60 0 0 60 0 60 60 0 60 0 0 -60z
m122 8 l2 -53 3 53 4 52 60 0 59 0 0 -60 0 -60 -111 1 c-61 0 -114 -2 -117 -5
-3 -4 47 -6 111 -6 l117 0 0 -55 0 -55 -117 -2 c-65 -1 -94 -3 -65 -5 l52 -4
2 -57 2 -57 3 58 4 57 59 0 60 0 0 -60 0 -60 -120 0 -120 0 0 185 0 185 55 0
55 0 2 -52z m-1882 -133 l0 -55 -60 0 -60 0 0 55 0 55 60 0 60 0 0 -55z m1760
0 l0 -55 -60 0 -60 0 0 55 0 55 60 0 60 0 0 -55z m-1760 -125 l0 -60 -60 0
-60 0 0 60 0 60 60 0 60 0 0 -60z m1510 0 l0 -60 -60 0 -60 0 0 60 0 60 60 0
60 0 0 -60z m120 0 l0 -60 -55 0 -55 0 0 60 0 60 55 0 55 0 0 -60z m130 0 l0
-60 -60 0 -60 0 0 60 0 60 60 0 60 0 0 -60z m-2140 -190 l0 -120 -120 0 -120
0 0 120 0 120 120 0 120 0 0 -120z m250 0 l0 -120 -120 0 -120 0 0 120 0 120
120 0 120 0 0 -120z m250 0 l0 -120 -120 0 -120 0 0 120 0 120 120 0 120 0 0
-120z m1510 0 l0 -120 -120 0 -120 0 0 120 0 120 120 0 120 0 0 -120z m130 0
l0 -120 -60 0 -60 0 0 120 0 120 60 0 60 0 0 -120z m250 0 l0 -120 -120 0
-120 0 0 120 0 120 120 0 120 0 0 -120z m-2390 -250 l0 -120 -120 0 -120 0 0
120 0 120 120 0 120 0 0 -120z m250 0 l0 -120 -120 0 -120 0 0 120 0 120 120
0 120 0 0 -120z m130 60 l0 -60 -60 0 -60 0 0 60 0 60 60 0 60 0 0 -60z m1760
0 l0 -60 -60 0 -60 0 0 60 0 60 60 0 60 0 0 -60z m250 -60 l0 -120 -120 0
-120 0 0 120 0 120 120 0 120 0 0 -120z m-250 -65 l0 -55 -60 0 -60 0 0 55 0
55 60 0 60 0 0 -55z m-2140 -125 l0 -60 -60 0 -60 0 -2 58 -2 57 -3 -57 -4
-58 -54 0 -55 0 0 60 0 60 120 0 120 0 0 -60z m250 -125 l0 -185 -120 0 -120
0 0 60 0 60 68 2 67 2 -67 3 -68 4 0 54 0 55 118 2 117 2 -117 3 -118 4 0 59
0 60 120 0 120 0 0 -185z m1890 125 l0 -60 -60 0 -60 0 0 60 0 60 60 0 60 0 0
-60z m250 0 l0 -60 -60 0 -60 0 -2 53 -2 52 -3 -52 -4 -52 -52 -4 c-29 -2 1
-4 66 -5 l117 -2 0 -120 0 -120 -120 0 -120 0 0 185 0 185 120 0 120 0 0 -60z
m-2390 -190 l0 -120 -120 0 -120 0 0 120 0 120 120 0 120 0 0 -120z m2140 65
l0 -55 -60 0 -60 0 0 55 0 55 60 0 60 0 0 -55z m-1760 -125 l0 -60 -60 0 -60
0 0 60 0 60 60 0 60 0 0 -60z m1760 0 l0 -60 -60 0 -60 0 0 60 0 60 60 0 60 0
0 -60z m-2140 -190 l0 -120 -120 0 -120 0 0 120 0 120 120 0 120 0 0 -120z
m250 0 l0 -120 -120 0 -120 0 0 120 0 120 120 0 120 0 0 -120z m250 0 l0 -120
-120 0 -120 0 0 120 0 120 120 0 120 0 0 -120z m130 0 l0 -120 -60 0 -59 0 0
120 0 120 59 0 60 0 0 -120z m250 0 l0 -120 -120 0 -120 0 0 120 0 120 120 0
120 0 0 -120z m382 3 l2 -118 3 118 4 117 119 0 120 0 0 -120 0 -120 -185 0
-185 0 0 120 0 120 60 0 60 0 2 -117z m498 -3 l0 -120 -120 0 -120 0 0 120 0
120 120 0 120 0 0 -120z m250 0 l0 -120 -120 0 -120 0 0 120 0 120 120 0 120
0 0 -120z m130 0 l0 -120 -60 0 -60 0 0 120 0 120 60 0 60 0 0 -120z m250 0
l0 -120 -120 0 -120 0 0 120 0 120 120 0 120 0 0 -120z"/>
<path d="M2643 2005 c0 -27 2 -38 4 -22 2 15 2 37 0 50 -2 12 -4 0 -4 -28z"/>
<path d="M2563 1943 c15 -2 37 -2 50 0 12 2 0 4 -28 4 -27 0 -38 -2 -22 -4z"/>
<path d="M2640 1939 c0 -5 5 -7 10 -4 6 3 10 8 10 11 0 2 -4 4 -10 4 -5 0 -10
-5 -10 -11z"/>
<path d="M2693 1943 c15 -2 37 -2 50 0 12 2 0 4 -28 4 -27 0 -38 -2 -22 -4z"/>
<path d="M2643 1880 c0 -25 2 -35 4 -22 2 12 2 32 0 45 -2 12 -4 2 -4 -23z"/>
<path d="M423 1943 c15 -2 37 -2 50 0 12 2 0 4 -28 4 -27 0 -38 -2 -22 -4z"/>
<path d="M500 1940 c0 -5 5 -10 10 -10 6 0 10 5 10 10 0 6 -4 10 -10 10 -5 0
-10 -4 -10 -10z"/>
<path d="M553 1943 c15 -2 37 -2 50 0 12 2 0 4 -28 4 -27 0 -38 -2 -22 -4z"/>
<path d="M758 1998 c-1 -29 0 -80 3 -113 4 -48 6 -38 7 53 2 116 -4 151 -10
60z"/>
<path d="M673 1943 c15 -2 37 -2 50 0 12 2 0 4 -28 4 -27 0 -38 -2 -22 -4z"/>
<path d="M803 1943 c15 -2 37 -2 50 0 12 2 0 4 -28 4 -27 0 -38 -2 -22 -4z"/>
<path d="M2273 2005 c0 -27 2 -38 4 -22 2 15 2 37 0 50 -2 12 -4 0 -4 -28z"/>
<path d="M2183 1943 c15 -2 37 -2 50 0 12 2 0 4 -28 4 -27 0 -38 -2 -22 -4z"/>
<path d="M2265 1940 c3 -5 8 -10 11 -10 2 0 4 5 4 10 0 6 -5 10 -11 10 -5 0
-7 -4 -4 -10z"/>
<path d="M2313 1943 c15 -2 37 -2 50 0 12 2 0 4 -28 4 -27 0 -38 -2 -22 -4z"/>
<path d="M2273 1875 c0 -27 2 -38 4 -22 2 15 2 37 0 50 -2 12 -4 0 -4 -28z"/>
<path d="M2443 1943 c15 -2 37 -2 50 0 12 2 0 4 -28 4 -27 0 -38 -2 -22 -4z"/>
<path d="M252 1743 l-2 -63 63 2 62 2 -57 3 -57 4 -4 57 -3 57 -2 -62z"/>
<path d="M173 1683 c15 -2 37 -2 50 0 12 2 0 4 -28 4 -27 0 -38 -2 -22 -4z"/>
<path d="M253 1625 c0 -27 2 -38 4 -22 2 15 2 37 0 50 -2 12 -4 0 -4 -28z"/>
<path d="M500 1689 c0 -5 28 -9 63 -8 71 1 67 5 -10 12 -29 2 -53 0 -53 -4z"/>
<path d="M423 1683 c15 -2 37 -2 50 0 12 2 0 4 -28 4 -27 0 -38 -2 -22 -4z"/>
<path d="M2643 1755 c0 -27 2 -38 4 -22 2 15 2 37 0 50 -2 12 -4 0 -4 -28z"/>
<path d="M2640 1688 c0 -5 28 -7 63 -7 67 1 60 6 -15 11 -27 2 -48 0 -48 -4z"/>
<path d="M2563 1683 c15 -2 37 -2 50 0 12 2 0 4 -28 4 -27 0 -38 -2 -22 -4z"/>
<path d="M2643 1625 c0 -27 2 -38 4 -22 2 15 2 37 0 50 -2 12 -4 0 -4 -28z"/>
<path d="M253 1375 c0 -27 2 -38 4 -22 2 15 2 37 0 50 -2 12 -4 0 -4 -28z"/>
<path d="M253 1235 c0 -22 2 -30 4 -17 2 12 2 30 0 40 -3 9 -5 -1 -4 -23z"/>
<path d="M2643 1375 c0 -27 2 -38 4 -22 2 15 2 37 0 50 -2 12 -4 0 -4 -28z"/>
<path d="M251 1154 c0 -11 3 -14 6 -6 3 7 2 16 -1 19 -3 4 -6 -2 -5 -13z"/>
<path d="M252 1105 c0 -16 2 -22 5 -12 2 9 2 23 0 30 -3 6 -5 -1 -5 -18z"/>
<path d="M250 1060 c0 -5 5 -10 10 -10 6 0 10 5 10 10 0 6 -4 10 -10 10 -5 0
-10 -4 -10 -10z"/>
<path d="M253 995 c0 -27 2 -38 4 -22 2 15 2 37 0 50 -2 12 -4 0 -4 -28z"/>
<path d="M500 1060 c0 -5 5 -10 10 -10 6 0 10 5 10 10 0 6 -4 10 -10 10 -5 0
-10 -4 -10 -10z"/>
<path d="M764 1060 c0 -63 1 -89 3 -57 2 31 2 83 0 115 -2 31 -3 5 -3 -58z"/>
<path d="M2273 1125 c0 -27 2 -38 4 -22 2 15 2 37 0 50 -2 12 -4 0 -4 -28z"/>
<path d="M2273 995 c0 -27 2 -38 4 -22 2 15 2 37 0 50 -2 12 -4 0 -4 -28z"/>
<path d="M2643 1125 c0 -27 2 -38 4 -22 2 15 2 37 0 50 -2 12 -4 0 -4 -28z"/>
<path d="M2640 1060 c0 -5 5 -10 10 -10 6 0 10 5 10 10 0 6 -4 10 -10 10 -5 0
-10 -4 -10 -10z"/>
<path d="M2643 995 c0 -27 2 -38 4 -22 2 15 2 37 0 50 -2 12 -4 0 -4 -28z"/>
<path d="M254 810 c0 -63 1 -92 3 -63 l4 52 57 4 57 3 -57 2 -57 2 -4 58 c-2
31 -3 5 -3 -58z"/>
<path d="M173 803 c15 -2 37 -2 50 0 12 2 0 4 -28 4 -27 0 -38 -2 -22 -4z"/>
<path d="M500 809 c0 -5 28 -9 63 -8 71 1 67 5 -10 12 -29 2 -53 0 -53 -4z"/>
<path d="M423 803 c15 -2 37 -2 50 0 12 2 0 4 -28 4 -27 0 -38 -2 -22 -4z"/>
<path d="M2641 863 c0 -35 2 -63 7 -63 4 0 6 21 4 48 -5 75 -10 82 -11 15z"/>
<path d="M2563 803 c15 -2 37 -2 50 0 12 2 0 4 -28 4 -27 0 -38 -2 -22 -4z"/>
<path d="M2693 803 c15 -2 37 -2 50 0 12 2 0 4 -28 4 -27 0 -38 -2 -22 -4z"/>
<path d="M2643 755 c0 -22 2 -30 4 -17 2 12 2 30 0 40 -3 9 -5 -1 -4 -23z"/>
<path d="M553 433 c15 -2 37 -2 50 0 12 2 0 4 -28 4 -27 0 -38 -2 -22 -4z"/>
<path d="M2643 495 c0 -27 2 -38 4 -22 2 15 2 37 0 50 -2 12 -4 0 -4 -28z"/>
<path d="M2563 433 c15 -2 37 -2 50 0 12 2 0 4 -28 4 -27 0 -38 -2 -22 -4z"/>
<path d="M2640 432 c0 -4 21 -6 48 -4 75 5 82 10 15 11 -35 0 -63 -2 -63 -7z"/>
<path d="M2642 390 c0 -14 2 -19 5 -12 2 6 2 18 0 25 -3 6 -5 1 -5 -13z"/>
<path d="M2642 340 c0 -14 2 -19 5 -12 2 6 2 18 0 25 -3 6 -5 1 -5 -13z"/>
<path d="M253 495 c0 -27 2 -38 4 -22 2 15 2 37 0 50 -2 12 -4 0 -4 -28z"/>
<path d="M173 433 c15 -2 37 -2 50 0 12 2 0 4 -28 4 -27 0 -38 -2 -22 -4z"/>
<path d="M250 432 c0 -4 21 -6 48 -4 75 5 82 10 15 11 -35 0 -63 -2 -63 -7z"/>
<path d="M253 365 c0 -27 2 -38 4 -22 2 15 2 37 0 50 -2 12 -4 0 -4 -28z"/>
<path d="M253 245 c0 -27 2 -38 4 -22 2 15 2 37 0 50 -2 12 -4 0 -4 -28z"/>
<path d="M250 180 c0 -5 5 -10 10 -10 6 0 10 5 10 10 0 6 -4 10 -10 10 -5 0
-10 -4 -10 -10z"/>
<path d="M253 115 c0 -27 2 -38 4 -22 2 15 2 37 0 50 -2 12 -4 0 -4 -28z"/>
<path d="M500 180 c0 -5 5 -10 10 -10 6 0 10 5 10 10 0 6 -4 10 -10 10 -5 0
-10 -4 -10 -10z"/>
<path d="M758 233 c-1 -32 0 -83 3 -113 4 -42 6 -28 7 58 2 118 -4 151 -10 55z"/>
<path d="M1130 180 c0 -5 5 -10 10 -10 6 0 10 5 10 10 0 6 -4 10 -10 10 -5 0
-10 -4 -10 -10z"/>
<path d="M1763 245 c0 -27 2 -38 4 -22 2 15 2 37 0 50 -2 12 -4 0 -4 -28z"/>
<path d="M1760 180 c0 -5 5 -10 10 -10 6 0 10 5 10 10 0 6 -4 10 -10 10 -5 0
-10 -4 -10 -10z"/>
<path d="M1803 173 c9 -2 25 -2 35 0 9 3 1 5 -18 5 -19 0 -27 -2 -17 -5z"/>
<path d="M1763 115 c0 -27 2 -38 4 -22 2 15 2 37 0 50 -2 12 -4 0 -4 -28z"/>
<path d="M2010 180 c0 -5 5 -10 10 -10 6 0 10 5 10 10 0 6 -4 10 -10 10 -5 0
-10 -4 -10 -10z"/>
<path d="M2273 245 c0 -27 2 -38 4 -22 2 15 2 37 0 50 -2 12 -4 0 -4 -28z"/>
<path d="M2265 180 c-3 -5 -1 -10 4 -10 6 0 11 5 11 10 0 6 -2 10 -4 10 -3 0
-8 -4 -11 -10z"/>
<path d="M2271 144 c0 -11 3 -14 6 -6 3 7 2 16 -1 19 -3 4 -6 -2 -5 -13z"/>
<path d="M2272 95 c0 -16 2 -22 5 -12 2 9 2 23 0 30 -3 6 -5 -1 -5 -18z"/>
<path d="M2640 217 c0 -26 4 -47 9 -47 8 0 3 79 -5 89 -2 2 -4 -17 -4 -42z"/>
<path d="M2643 115 c0 -27 2 -38 4 -22 2 15 2 37 0 50 -2 12 -4 0 -4 -28z"/>
<path d="M253 2250 c0 -25 2 -35 4 -22 2 12 2 32 0 45 -2 12 -4 2 -4 -23z"/>
<path d="M513 2250 c0 -25 2 -35 4 -22 2 12 2 32 0 45 -2 12 -4 2 -4 -23z"/>
<path d="M883 2250 c0 -25 2 -35 4 -22 2 12 2 32 0 45 -2 12 -4 2 -4 -23z"/>
<path d="M1131 2248 c1 -37 2 -39 9 -18 12 36 12 60 0 60 -5 0 -10 -19 -9 -42z"/>
<path d="M1262 2248 l-2 -48 -117 0 c-64 0 -114 -2 -111 -6 3 -3 56 -5 116 -5
l111 0 4 -67 3 -67 2 67 2 67 119 0 120 0 4 -32 4 -32 1 33 2 32 59 0 60 0 4
-37 c2 -21 4 3 4 52 -1 50 -2 69 -4 43 l-4 -48 -59 0 -59 0 -4 48 -3 47 -2
-47 -2 -48 -119 0 -120 0 -4 48 -3 47 -2 -47z"/>
<path d="M1393 2250 c0 -25 2 -35 4 -22 2 12 2 32 0 45 -2 12 -4 2 -4 -23z"/>
<path d="M1763 2250 c0 -25 2 -35 4 -22 2 12 2 32 0 45 -2 12 -4 2 -4 -23z"/>
<path d="M2012 2270 c0 -14 2 -19 5 -12 2 6 2 18 0 25 -3 6 -5 1 -5 -13z"/>
<path d="M2143 2250 c0 -25 2 -35 4 -22 2 12 2 32 0 45 -2 12 -4 2 -4 -23z"/>
<path d="M2643 2250 c0 -25 2 -35 4 -22 2 12 2 32 0 45 -2 12 -4 2 -4 -23z"/>
<path d="M2903 2250 c0 -25 2 -35 4 -22 2 12 2 32 0 45 -2 12 -4 2 -4 -23z"/>
<path d="M2011 2224 c0 -11 3 -14 6 -6 3 7 2 16 -1 19 -3 4 -6 -2 -5 -13z"/>
<path d="M1683 2193 c15 -2 37 -2 50 0 12 2 0 4 -28 4 -27 0 -38 -2 -22 -4z"/>
<path d="M2902 2100 c0 -14 2 -19 5 -12 2 6 2 18 0 25 -3 6 -5 1 -5 -13z"/>
<path d="M1387 2084 c-220 -53 -389 -224 -448 -452 -83 -325 133 -666 467
-737 300 -64 606 112 704 405 30 90 37 233 16 325 -54 227 -232 407 -456 459
-80 19 -205 19 -283 0z m258 -29 c206 -43 375 -198 437 -400 46 -148 24 -324
-59 -464 l-38 -63 -6 101 c-4 56 -9 104 -12 107 -2 3 -1 22 4 42 10 46 0 234
-13 226 -5 -3 -13 -16 -18 -28 -7 -18 -9 -16 -15 17 -4 21 -12 36 -19 34 -16
-5 -26 -78 -12 -99 14 -23 30 -23 21 0 -4 9 -8 33 -11 52 -3 29 0 25 14 -17 9
-29 20 -53 24 -53 5 0 9 19 10 43 1 28 3 17 8 -33 4 -41 3 -97 -2 -124 -5 -28
-4 -74 2 -110 11 -66 13 -146 5 -146 -3 0 -24 9 -45 20 l-40 20 0 83 c0 77 -2
84 -29 109 -15 15 -31 42 -35 59 -8 41 0 50 14 15 8 -23 12 -25 29 -14 28 17
12 52 -25 56 -16 2 -33 8 -39 14 -7 7 6 8 43 4 28 -4 52 -4 52 0 0 3 -9 17
-20 31 -11 14 -20 33 -20 41 0 13 3 12 15 -4 8 -10 15 -14 15 -8 0 5 -6 19
-14 30 -12 15 -17 16 -27 7 -10 -10 -9 -20 4 -49 l18 -36 -41 4 c-22 2 -40 0
-40 -5 0 -5 10 -40 21 -78 15 -48 29 -75 45 -86 20 -13 24 -23 23 -67 -1 -66
-14 -145 -21 -126 -3 8 -11 40 -17 71 -7 30 -19 65 -27 77 -18 26 -72 55 -131
71 -37 10 -44 16 -53 49 -7 27 -7 38 1 41 6 2 21 13 33 25 18 18 18 21 5 24
-25 5 -4 81 25 92 37 14 49 36 42 77 -3 21 -6 50 -6 65 0 41 -25 95 -52 108
-12 7 -35 24 -50 38 -38 35 -112 41 -153 12 -16 -11 -45 -30 -63 -41 -42 -27
-52 -47 -52 -103 0 -25 -4 -48 -10 -51 -28 -18 2 -105 36 -105 15 0 28 -22 38
-64 6 -23 4 -27 -8 -23 -9 4 -16 3 -16 -1 0 -11 36 -49 51 -54 10 -3 10 -13 3
-38 -8 -30 -17 -37 -74 -57 -35 -13 -74 -30 -88 -39 -30 -20 -52 -72 -59 -141
-8 -76 -20 -54 -28 52 l-7 90 31 22 c20 16 32 35 37 60 4 21 13 51 21 66 18
36 12 42 -39 38 -40 -3 -40 -3 -24 20 9 13 16 31 16 41 0 19 -22 37 -27 21 -2
-6 -11 -19 -19 -29 -15 -18 -15 -18 -11 2 5 23 -9 54 -23 54 -6 0 -10 -10 -10
-22 -1 -13 -7 -34 -15 -48 -16 -28 -19 -50 -7 -50 5 0 16 21 24 48 12 34 16
40 17 22 0 -14 -3 -32 -8 -40 -6 -8 -7 -18 -4 -23 3 -4 18 10 35 32 37 50 47
53 19 5 -30 -51 -28 -56 25 -48 34 5 45 4 40 -5 -4 -6 -20 -11 -36 -11 -33 0
-50 -31 -30 -55 17 -21 30 -19 30 4 0 10 6 24 14 30 12 10 12 6 0 -36 -8 -26
-25 -57 -39 -68 -23 -19 -25 -27 -25 -103 l0 -82 -39 -20 -39 -20 0 221 c1
121 5 214 9 207 6 -9 9 -7 9 8 0 12 -7 24 -15 28 -12 4 -15 -7 -17 -67 -1 -40
-1 -85 -1 -102 4 -79 2 -137 -4 -215 l-8 -85 -36 60 c-74 121 -102 289 -70
425 72 304 374 498 676 435z m-47 -162 c13 -8 28 -25 34 -39 8 -18 14 -21 20
-12 14 21 48 -28 48 -69 0 -20 -4 -32 -10 -28 -17 10 -11 -4 10 -25 24 -24 25
-48 4 -78 -18 -26 -49 -31 -40 -6 3 9 6 22 6 30 0 8 8 14 18 14 16 1 16 1 -1
11 -28 16 -37 51 -18 66 14 10 11 12 -14 10 -26 -2 -30 1 -27 22 2 20 0 22
-12 11 -19 -15 -43 -3 -27 13 6 6 11 18 11 26 0 11 -5 9 -16 -7 -21 -31 -87
-31 -108 0 -13 18 -16 19 -16 6 0 -9 5 -20 11 -24 7 -4 8 -9 0 -17 -7 -7 -15
-6 -26 3 -13 11 -15 9 -13 -11 3 -21 -1 -24 -27 -22 -27 2 -28 1 -12 -11 14
-11 16 -19 7 -40 -5 -14 -17 -27 -27 -27 -16 -1 -16 -2 -1 -6 15 -4 34 -50 24
-60 -8 -9 -45 17 -51 36 -6 20 13 71 27 71 4 0 8 5 8 11 0 5 -4 7 -10 4 -16
-10 -12 42 5 75 15 29 35 40 35 20 0 -5 5 -10 10 -10 6 0 10 8 10 18 0 38 69
75 120 65 14 -3 35 -12 48 -20z m-1 -118 c29 -19 50 -51 58 -90 l7 -30 -24 27
c-31 36 -59 48 -108 48 -49 0 -77 -12 -108 -48 l-24 -27 6 30 c20 93 118 139
193 90z m10 -80 c37 -24 47 -61 33 -122 -6 -29 -17 -53 -23 -53 -25 1 -57 36
-63 70 -7 31 -6 34 9 22 9 -8 25 -11 37 -7 28 9 14 26 -16 19 -14 -4 -24 -2
-24 5 0 11 19 15 54 11 11 -1 15 3 12 9 -4 6 -20 11 -36 11 -36 0 -53 -27 -48
-78 2 -28 -1 -37 -12 -37 -12 0 -14 10 -12 43 2 24 -2 49 -8 57 -14 17 -70 20
-70 5 0 -5 13 -10 29 -10 37 0 44 -11 36 -58 -5 -29 -13 -41 -36 -51 -17 -7
-31 -12 -33 -10 -13 17 -23 95 -15 123 19 69 118 95 186 51z m-4 -184 c32 -17
35 -20 19 -26 -11 -3 -36 2 -56 11 -33 16 -37 16 -75 0 -49 -23 -75 -12 -34
14 37 24 100 25 146 1z m-35 -31 c47 -29 44 -63 -7 -78 -52 -16 -101 0 -101
34 l0 23 34 -20 c34 -20 75 -15 91 10 8 14 -1 14 -25 -1 -13 -9 -27 -9 -46 -3
-36 13 -40 29 -12 43 31 14 29 15 66 -8z m-345 -20 c-3 -11 -9 -20 -14 -20
-11 0 -11 3 -3 24 9 23 23 20 17 -4z m634 5 c9 -25 -4 -29 -17 -6 -7 15 -7 21
0 21 6 0 13 -7 17 -15z m-310 -100 c46 -17 83 -36 83 -42 0 -19 -9 -17 -104
23 -47 20 -83 40 -80 46 3 5 9 8 12 6 4 -2 44 -17 89 -33z m73 26 c0 -9 -33
-21 -57 -21 -22 0 -14 18 10 23 39 8 47 7 47 -2z m166 -84 c13 -16 27 -57 39
-115 17 -88 17 -90 -3 -136 -12 -25 -17 -46 -13 -46 10 0 49 88 57 129 l6 30
47 -22 c25 -12 48 -23 50 -24 18 -12 -183 -163 -215 -163 -11 0 -14 26 -15
128 0 96 -3 121 -10 102 -6 -14 -9 -74 -7 -134 l3 -110 -46 -11 c-26 -7 -74
-15 -109 -18 -50 -5 -61 -4 -57 7 12 31 137 413 137 418 0 3 -12 9 -27 13 -26
7 -26 8 -8 15 28 10 145 -33 171 -63z m-261 23 c55 -24 89 -44 87 -52 -1 -7
-28 -92 -60 -188 l-57 -175 -30 3 c-16 2 -53 9 -80 17 l-50 14 3 108 c2 63 -1
118 -7 133 -9 21 -10 16 -9 -35 1 -33 1 -91 0 -128 -2 -66 -3 -68 -24 -61 -53
16 -208 132 -208 155 0 5 6 9 13 9 7 0 29 8 48 18 l36 18 22 -67 c12 -37 28
-73 37 -79 11 -10 9 -1 -6 35 -18 42 -19 55 -10 109 24 134 37 153 125 189 57
23 69 21 170 -23z"/>
<path d="M1413 2015 c-241 -53 -416 -272 -417 -525 0 -86 26 -202 56 -243 12
-16 13 -16 15 5 2 34 2 138 1 173 -1 17 -1 67 0 113 l2 82 30 0 c20 0 30 5 30
15 0 19 24 19 40 0 9 -10 16 -12 25 -5 8 6 19 4 34 -7 19 -13 22 -22 18 -50
-6 -33 -5 -35 18 -29 34 9 51 -23 32 -61 -8 -16 -17 -44 -21 -64 -3 -20 -19
-48 -36 -64 -24 -23 -30 -37 -29 -69 l1 -41 15 43 c12 34 25 48 66 72 29 17
67 33 85 36 45 9 63 50 31 72 -12 8 -27 30 -35 48 -18 42 -18 47 1 40 27 -10
16 22 -14 40 -40 23 -55 55 -47 96 4 18 10 57 15 87 7 48 13 59 57 98 103 93
167 97 271 17 62 -48 72 -63 79 -121 2 -26 7 -67 10 -90 6 -43 1 -51 -60 -101
-21 -17 -21 -36 0 -28 12 5 15 2 10 -10 -3 -8 -6 -21 -6 -28 0 -8 -12 -25 -26
-39 -37 -37 -29 -67 21 -82 81 -24 125 -54 146 -98 l19 -42 0 34 c0 24 -8 43
-27 63 -29 30 -54 100 -56 158 -2 34 -1 35 33 32 28 -3 33 -1 23 9 -19 19 -16
46 9 68 15 14 25 18 33 11 9 -7 16 -5 25 5 16 20 36 19 44 -1 3 -9 12 -14 19
-11 33 13 37 -8 41 -196 1 -103 5 -189 8 -192 7 -7 44 94 58 155 35 162 -24
355 -150 480 -131 131 -314 185 -497 145z m217 -21 c72 -13 161 -50 204 -83
84 -64 161 -176 196 -284 16 -52 15 -233 -2 -279 -13 -34 -14 -26 -16 114 -2
150 -8 178 -39 178 -7 0 -25 7 -39 16 -19 13 -28 14 -37 5 -6 -6 -22 -11 -36
-11 -32 0 -61 -27 -61 -57 0 -16 -8 -27 -25 -33 -36 -14 -40 -33 -21 -92 17
-55 22 -103 7 -80 -4 8 -12 13 -17 13 -16 -2 -74 20 -80 30 -3 6 3 20 13 32
29 33 42 71 32 89 -7 12 0 25 27 52 34 34 36 39 29 79 -3 23 -10 65 -14 92
-11 70 -16 78 -78 129 -100 83 -171 84 -276 6 -71 -54 -77 -62 -88 -135 -4
-27 -10 -68 -14 -91 -7 -37 -4 -43 29 -79 27 -28 33 -41 25 -51 -11 -14 -2
-39 32 -83 11 -13 19 -29 19 -36 0 -10 -81 -45 -105 -45 -9 0 2 62 12 69 17
12 15 72 -3 92 -9 10 -21 16 -25 13 -5 -3 -9 3 -9 14 0 33 -38 72 -70 72 -16
0 -32 4 -35 10 -3 6 -18 4 -38 -5 -18 -7 -39 -16 -48 -18 -9 -3 -19 -21 -23
-40 -8 -43 -9 -223 -2 -236 3 -5 2 -20 -3 -33 -9 -22 -10 -21 -10 9 -1 17 -5
35 -11 38 -6 4 -10 53 -10 115 0 62 4 111 10 115 6 3 10 17 10 29 0 46 57 153
115 215 47 50 144 108 215 130 111 33 153 36 260 15z"/>
<path d="M1942 1450 c0 -19 2 -27 5 -17 2 9 2 25 0 35 -3 9 -5 1 -5 -18z"/>
<path d="M1898 1353 c7 -3 16 -2 19 1 4 3 -2 6 -13 5 -11 0 -14 -3 -6 -6z"/>
<path d="M1450 1620 c-9 -6 -6 -10 10 -15 12 -4 26 -3 32 3 12 12 -25 23 -42
12z"/>
<path d="M1612 1571 c-6 -17 -7 -31 -3 -31 8 0 22 52 16 58 -1 2 -7 -11 -13
-27z"/>
<path d="M1760 1291 c5 -11 15 -23 21 -27 6 -3 3 5 -6 20 -20 30 -30 35 -15 7z"/>
<path d="M1687 1090 c-10 -39 -75 -109 -110 -119 -31 -9 -31 -9 -5 -10 15 -1
40 10 58 25 33 29 74 98 67 117 -2 7 -6 1 -10 -13z"/>
<path d="M1408 1343 c6 -2 18 -2 25 0 6 3 1 5 -13 5 -14 0 -19 -2 -12 -5z"/>
<path d="M1299 1303 c-13 -16 -12 -17 4 -4 9 7 17 15 17 17 0 8 -8 3 -21 -13z"/>
<path d="M1547 1254 c-8 -8 1 -24 14 -24 5 0 9 7 9 15 0 15 -12 20 -23 9z"/>
<path d="M1261 1214 c0 -11 3 -14 6 -6 3 7 2 16 -1 19 -3 4 -6 -2 -5 -13z"/>
<path d="M1252 1160 c0 -14 2 -19 5 -12 2 6 2 18 0 25 -3 6 -5 1 -5 -13z"/>
<path d="M1512 1149 c2 -6 8 -10 13 -10 5 0 11 4 13 10 2 6 -4 11 -13 11 -9 0
-15 -5 -13 -11z"/>
<path d="M1480 1055 c0 -9 5 -15 11 -13 6 2 11 8 11 13 0 5 -5 11 -11 13 -6 2
-11 -4 -11 -13z"/>
<path d="M1488 1002 c-7 -11 -26 -26 -43 -35 -16 -9 -23 -16 -15 -17 20 0 57
26 70 51 13 24 5 25 -12 1z"/>
<path d="M1360 991 c0 -10 39 -36 45 -29 2 2 -8 11 -21 21 -13 10 -24 13 -24
8z"/>
<path d="M2843 2063 c32 -2 81 -2 110 0 29 2 3 3 -58 3 -60 0 -84 -1 -52 -3z"/>
<path d="M253 2005 c0 -27 2 -38 4 -22 2 15 2 37 0 50 -2 12 -4 0 -4 -28z"/>
<path d="M2903 2005 c0 -27 2 -38 4 -22 2 15 2 37 0 50 -2 12 -4 0 -4 -28z"/>
<path d="M58 1943 c12 -2 30 -2 40 0 9 3 -1 5 -23 4 -22 0 -30 -2 -17 -4z"/>
<path d="M173 1943 c15 -2 37 -2 50 0 12 2 0 4 -28 4 -27 0 -38 -2 -22 -4z"/>
<path d="M251 1888 c1 -68 6 -61 11 15 2 26 0 47 -4 47 -5 0 -7 -28 -7 -62z"/>
<path d="M303 1943 c15 -2 37 -2 50 0 12 2 0 4 -28 4 -27 0 -38 -2 -22 -4z"/>
<path d="M1038 1943 c6 -2 18 -2 25 0 6 3 1 5 -13 5 -14 0 -19 -2 -12 -5z"/>
<path d="M2010 1940 c0 -5 5 -10 10 -10 6 0 10 5 10 10 0 6 -4 10 -10 10 -5 0
-10 -4 -10 -10z"/>
<path d="M2063 1943 c15 -2 37 -2 50 0 12 2 0 4 -28 4 -27 0 -38 -2 -22 -4z"/>
<path d="M2818 1943 c12 -2 32 -2 45 0 12 2 2 4 -23 4 -25 0 -35 -2 -22 -4z"/>
<path d="M2890 1940 c0 -5 5 -10 10 -10 6 0 10 5 10 10 0 6 -4 10 -10 10 -5 0
-10 -4 -10 -10z"/>
<path d="M2920 1946 c0 -8 71 -12 76 -4 3 4 -13 8 -35 8 -23 0 -41 -2 -41 -4z"/>
<path d="M2903 1875 c0 -27 2 -38 4 -22 2 15 2 37 0 50 -2 12 -4 0 -4 -28z"/>
<path d="M760 1745 l0 -54 -57 -4 -58 -3 57 -2 57 -2 4 -52 c2 -29 4 -2 5 60
1 61 0 112 -3 112 -3 0 -5 -25 -5 -55z"/>
<path d="M2272 1770 c0 -19 2 -27 5 -17 2 9 2 25 0 35 -3 9 -5 1 -5 -18z"/>
<path d="M2903 1755 c0 -27 2 -38 4 -22 2 15 2 37 0 50 -2 12 -4 0 -4 -28z"/>
<path d="M2265 1690 c-3 -5 -1 -10 4 -10 6 0 11 5 11 10 0 6 -2 10 -4 10 -3 0
-8 -4 -11 -10z"/>
<path d="M2890 1690 c0 -5 5 -10 10 -10 6 0 10 5 10 10 0 6 -4 10 -10 10 -5 0
-10 -4 -10 -10z"/>
<path d="M803 1683 c15 -2 37 -2 50 0 12 2 0 4 -28 4 -27 0 -38 -2 -22 -4z"/>
<path d="M2183 1683 c15 -2 37 -2 50 0 12 2 0 4 -28 4 -27 0 -38 -2 -22 -4z"/>
<path d="M2813 1683 c15 -2 37 -2 50 0 12 2 0 4 -28 4 -27 0 -38 -2 -22 -4z"/>
<path d="M2938 1683 c12 -2 32 -2 45 0 12 2 2 4 -23 4 -25 0 -35 -2 -22 -4z"/>
<path d="M2273 1625 c0 -27 2 -38 4 -22 2 15 2 37 0 50 -2 12 -4 0 -4 -28z"/>
<path d="M2903 1630 c0 -25 2 -35 4 -22 2 12 2 32 0 45 -2 12 -4 2 -4 -23z"/>
<path d="M2903 1500 c0 -25 2 -35 4 -22 2 12 2 32 0 45 -2 12 -4 2 -4 -23z"/>
<path d="M2273 1375 c0 -27 2 -38 4 -22 2 15 2 37 0 50 -2 12 -4 0 -4 -28z"/>
<path d="M2903 1375 c0 -27 2 -38 4 -22 2 15 2 37 0 50 -2 12 -4 0 -4 -28z"/>
<path d="M2902 1265 c0 -16 2 -22 5 -12 2 9 2 23 0 30 -3 6 -5 -1 -5 -18z"/>
<path d="M2901 1214 c0 -11 3 -14 6 -6 3 7 2 16 -1 19 -3 4 -6 -2 -5 -13z"/>
<path d="M2903 1125 c0 -27 2 -38 4 -22 2 15 2 37 0 50 -2 12 -4 0 -4 -28z"/>
<path d="M2010 1060 c0 -5 5 -10 10 -10 6 0 10 5 10 10 0 6 -4 10 -10 10 -5 0
-10 -4 -10 -10z"/>
<path d="M2890 1060 c0 -5 5 -10 10 -10 6 0 10 5 10 10 0 6 -4 10 -10 10 -5 0
-10 -4 -10 -10z"/>
<path d="M2903 1005 c0 -22 2 -30 4 -17 2 12 2 30 0 40 -3 9 -5 -1 -4 -23z"/>
<path d="M2272 890 c0 -19 2 -27 5 -17 2 9 2 25 0 35 -3 9 -5 1 -5 -18z"/>
<path d="M1264 815 c0 -55 1 -81 3 -58 l4 42 52 4 52 3 -52 2 -52 2 -4 53 c-2
28 -3 7 -3 -48z"/>
<path d="M1763 825 c0 -38 2 -60 4 -48 4 19 12 23 61 26 l57 3 -57 2 -57 2 -4
43 c-2 25 -4 13 -4 -28z"/>
<path d="M2902 860 c0 -19 2 -27 5 -17 2 9 2 25 0 35 -3 9 -5 1 -5 -18z"/>
<path d="M1638 838 c-2 -18 0 -46 3 -63 5 -22 7 -13 8 33 1 67 -4 83 -11 30z"/>
<path d="M1513 800 c0 -36 2 -51 4 -33 4 31 6 32 56 36 l52 3 -52 2 c-48 2
-52 4 -56 30 -2 15 -4 -2 -4 -38z"/>
<path d="M1130 809 c0 -5 28 -9 63 -8 71 1 67 5 -10 12 -29 2 -53 0 -53 -4z"/>
<path d="M1385 810 c-3 -5 -1 -10 4 -10 6 0 11 5 11 10 0 6 -2 10 -4 10 -3 0
-8 -4 -11 -10z"/>
<path d="M2010 810 c0 -5 5 -10 10 -10 6 0 10 5 10 10 0 6 -4 10 -10 10 -5 0
-10 -4 -10 -10z"/>
<path d="M2265 810 c-3 -5 -1 -10 4 -10 6 0 11 5 11 10 0 6 -2 10 -4 10 -3 0
-8 -4 -11 -10z"/>
<path d="M2845 810 l-50 -7 58 -1 c32 -1 57 2 57 8 0 6 -3 9 -7 8 -5 0 -30 -4
-58 -8z"/>
<path d="M803 803 c15 -2 37 -2 50 0 12 2 0 4 -28 4 -27 0 -38 -2 -22 -4z"/>
<path d="M1053 803 c15 -2 37 -2 50 0 12 2 0 4 -28 4 -27 0 -38 -2 -22 -4z"/>
<path d="M1433 803 c15 -2 37 -2 50 0 12 2 0 4 -28 4 -27 0 -38 -2 -22 -4z"/>
<path d="M1683 803 c15 -2 37 -2 50 0 12 2 0 4 -28 4 -27 0 -38 -2 -22 -4z"/>
<path d="M1933 803 c15 -2 37 -2 50 0 12 2 0 4 -28 4 -27 0 -38 -2 -22 -4z"/>
<path d="M2063 803 c15 -2 37 -2 50 0 12 2 0 4 -28 4 -27 0 -38 -2 -22 -4z"/>
<path d="M2313 803 c15 -2 37 -2 50 0 12 2 0 4 -28 4 -27 0 -38 -2 -22 -4z"/>
<path d="M2938 803 c12 -2 32 -2 45 0 12 2 2 4 -23 4 -25 0 -35 -2 -22 -4z"/>
<path d="M763 755 c0 -22 2 -30 4 -17 2 12 2 30 0 40 -3 9 -5 -1 -4 -23z"/>
<path d="M882 770 c0 -14 2 -19 5 -12 2 6 2 18 0 25 -3 6 -5 1 -5 -13z"/>
<path d="M2272 770 c0 -14 2 -19 5 -12 2 6 2 18 0 25 -3 6 -5 1 -5 -13z"/>
<path d="M2903 745 c0 -27 2 -38 4 -22 2 15 2 37 0 50 -2 12 -4 0 -4 -28z"/>
<path d="M1000 732 c-43 -13 -50 -32 -50 -133 0 -88 2 -100 22 -119 28 -26 72
-26 98 0 22 22 22 22 20 135 -1 55 -6 85 -16 96 -17 18 -51 28 -74 21z m48
-128 c2 -63 -1 -84 -13 -94 -12 -10 -18 -10 -30 0 -20 16 -22 166 -2 173 35
15 42 3 45 -79z"/>
<path d="M1873 727 c-29 -15 -43 -39 -43 -72 0 -34 17 -56 68 -86 35 -20 40
-40 17 -59 -19 -16 -45 3 -45 31 0 12 -7 19 -20 19 -29 0 -27 -50 3 -78 39
-37 99 -24 118 25 15 39 -4 74 -56 105 -47 29 -55 47 -30 68 21 18 45 5 45
-25 0 -20 5 -25 26 -25 24 0 26 3 20 32 -11 56 -60 88 -103 65z"/>
<path d="M791 704 c-18 -22 -21 -41 -21 -111 0 -76 2 -86 25 -108 54 -55 125
-16 125 68 l0 47 -35 0 c-31 0 -35 -3 -35 -25 0 -18 4 -23 15 -19 19 8 20 -16
2 -40 -8 -11 -19 -15 -30 -10 -14 5 -17 20 -17 90 0 66 3 86 15 90 19 8 48
-15 41 -33 -4 -9 3 -13 19 -13 20 0 25 5 25 25 0 62 -90 89 -129 39z"/>
<path d="M1142 707 c-19 -20 -22 -35 -22 -111 0 -79 2 -89 25 -111 31 -32 69
-32 100 0 23 22 25 32 25 113 0 75 -3 92 -20 110 -28 30 -80 29 -108 -1z m73
-27 c3 -5 7 -42 9 -81 2 -74 -10 -104 -39 -93 -12 5 -15 25 -15 88 0 46 3 86
7 89 9 10 31 8 38 -3z"/>
<path d="M1300 595 l0 -135 40 0 c46 0 95 21 104 45 3 9 6 54 6 100 0 78 -2
85 -26 104 -19 15 -41 21 -75 21 l-49 0 0 -135z m91 85 c16 -9 19 -22 19 -78
0 -70 -10 -92 -42 -92 -16 0 -18 10 -18 90 0 93 4 100 41 80z"/>
<path d="M1525 708 c2 -19 7 -22 29 -20 l26 3 0 -116 c0 -108 1 -115 20 -115
19 0 20 7 20 114 l0 115 26 -2 c21 -2 27 3 29 21 2 21 -2 22 -75 22 -73 0 -77
-1 -75 -22z m88 -5 c-7 -2 -19 -2 -25 0 -7 3 -2 5 12 5 14 0 19 -2 13 -5z"/>
<path d="M1692 606 c-27 -150 -27 -146 -2 -146 11 0 20 7 20 15 0 10 10 15 30
15 20 0 30 -5 30 -15 0 -10 10 -15 26 -15 22 0 25 3 20 23 -3 12 -14 73 -23
135 l-18 112 -31 0 -30 0 -22 -124z m61 67 c-6 -2 -6 -24 -2 -56 12 -82 11
-87 -12 -87 -17 0 -19 4 -13 23 4 12 8 51 9 87 3 80 3 80 17 56 7 -13 7 -21 1
-23z m37 -153 c0 -5 -4 -10 -10 -10 -5 0 -10 5 -10 10 0 6 5 10 10 10 6 0 10
-4 10 -10z"/>
<path d="M1988 704 c4 -21 9 -24 28 -20 l24 6 0 -115 c0 -113 0 -115 23 -115
22 0 22 1 19 115 l-3 116 27 -3 c22 -2 27 1 29 20 2 21 -2 22 -75 22 l-77 0 5
-26z"/>
<path d="M2155 595 l0 -135 63 0 c59 0 62 1 62 25 0 23 -4 25 -40 25 -39 0
-40 1 -40 35 0 34 1 35 40 35 33 0 40 3 40 20 0 17 -7 20 -40 20 -39 0 -40 1
-40 35 l0 35 40 -6 c38 -6 40 -5 40 20 0 25 -2 26 -62 26 l-63 0 0 -135z m40
16 c3 -5 1 -12 -5 -16 -5 -3 -10 1 -10 9 0 18 6 21 15 7z"/>
<path d="M1478 683 c7 -3 16 -2 19 1 4 3 -2 6 -13 5 -11 0 -14 -3 -6 -6z"/>
<path d="M2902 635 c0 -16 2 -22 5 -12 2 9 2 23 0 30 -3 6 -5 -1 -5 -18z"/>
<path d="M2313 553 c15 -2 37 -2 50 0 12 2 0 4 -28 4 -27 0 -38 -2 -22 -4z"/>
<path d="M2903 495 c0 -27 2 -38 4 -22 2 15 2 37 0 50 -2 12 -4 0 -4 -28z"/>
<path d="M793 433 c9 -2 23 -2 30 0 6 3 -1 5 -18 5 -16 0 -22 -2 -12 -5z"/>
<path d="M928 433 c12 -2 32 -2 45 0 12 2 2 4 -23 4 -25 0 -35 -2 -22 -4z"/>
<path d="M1070 436 c0 -8 71 -12 76 -4 3 4 -13 8 -35 8 -23 0 -41 -2 -41 -4z"/>
<path d="M1203 433 c9 -2 25 -2 35 0 9 3 1 5 -18 5 -19 0 -27 -2 -17 -5z"/>
<path d="M1385 430 c3 -5 8 -10 11 -10 2 0 4 5 4 10 0 6 -5 10 -11 10 -5 0 -7
-4 -4 -10z"/>
<path d="M1433 433 c15 -2 37 -2 50 0 12 2 0 4 -28 4 -27 0 -38 -2 -22 -4z"/>
<path d="M1683 433 c15 -2 37 -2 50 0 12 2 0 4 -28 4 -27 0 -38 -2 -22 -4z"/>
<path d="M1761 378 c1 -68 6 -61 11 15 2 26 0 47 -4 47 -5 0 -7 -28 -7 -62z"/>
<path d="M1808 433 c12 -2 30 -2 40 0 9 3 -1 5 -23 4 -22 0 -30 -2 -17 -4z"/>
<path d="M1941 436 c10 -8 89 -13 89 -5 0 5 -21 9 -47 9 -25 0 -44 -2 -42 -4z"/>
<path d="M2063 433 c15 -2 37 -2 50 0 12 2 0 4 -28 4 -27 0 -38 -2 -22 -4z"/>
<path d="M2265 430 c3 -5 8 -10 11 -10 2 0 4 5 4 10 0 6 -5 10 -11 10 -5 0 -7
-4 -4 -10z"/>
<path d="M2318 433 c12 -2 32 -2 45 0 12 2 2 4 -23 4 -25 0 -35 -2 -22 -4z"/>
<path d="M2800 434 c34 -7 110 -9 110 -2 0 5 -28 7 -62 7 -35 -1 -56 -3 -48
-5z"/>
<path d="M2938 433 c12 -2 32 -2 45 0 12 2 2 4 -23 4 -25 0 -35 -2 -22 -4z"/>
<path d="M2273 365 c0 -27 2 -38 4 -22 2 15 2 37 0 50 -2 12 -4 0 -4 -28z"/>
<path d="M2903 365 c0 -27 2 -38 4 -22 2 15 2 37 0 50 -2 12 -4 0 -4 -28z"/>
<path d="M1393 245 c0 -27 2 -38 4 -22 2 15 2 37 0 50 -2 12 -4 0 -4 -28z"/>
<path d="M2903 245 c0 -27 2 -38 4 -22 2 15 2 37 0 50 -2 12 -4 0 -4 -28z"/>
<path d="M1380 180 c0 -5 5 -10 10 -10 6 0 10 5 10 10 0 6 -4 10 -10 10 -5 0
-10 -4 -10 -10z"/>
<path d="M2890 180 c0 -5 5 -10 10 -10 6 0 10 5 10 10 0 6 -4 10 -10 10 -5 0
-10 -4 -10 -10z"/>
<path d="M2935 180 c-15 -7 -10 -9 23 -9 23 -1 42 4 42 9 0 12 -37 12 -65 0z"/>
<path d="M2903 105 c0 -22 2 -30 4 -17 2 12 2 30 0 40 -3 9 -5 -1 -4 -23z"/>
<path d="M252 20 c0 -14 2 -19 5 -12 2 6 2 18 0 25 -3 6 -5 1 -5 -13z"/>
<path d="M2272 20 c0 -14 2 -19 5 -12 2 6 2 18 0 25 -3 6 -5 1 -5 -13z"/>
<path d="M2641 24 c0 -11 3 -14 6 -6 3 7 2 16 -1 19 -3 4 -6 -2 -5 -13z"/>
</g>
</svg>
